<svg xmlns="http://www.w3.org/2000/svg" viewBox="0 0 1102.36 461.58"><defs><style>.cls-1{fill:#f5f201;}</style></defs><g id="Layer_2" data-name="Layer 2"><g id="new"><path class="cls-1" d="M1102.36,1V351h-55.42L897.53,100.79V345.6q-.15,2.72-.42,5.4-4.2,42.62-36,73.91a132.64,132.64,0,0,1-16,13.58Q813.93,461,773.25,461q-51.27,0-87.89-36.09Q649,388.82,649,337.71V111h53.23V337.71q0,29.32,20.75,49.9,21,20.83,50.29,20.83,29.54,0,50.29-20.83,21-20.6,21-49.9V111h0V1H900l149.17,250.21V1Z"/><path class="cls-1" d="M109.13,350.76a138.28,138.28,0,0,1-64-18.22Q12,313.6,0,281.72l49.8-18Q55.91,279.55,75,289.39a91.18,91.18,0,0,0,36.62,9.35q30.52,1.2,50.54-14.63,16.84-13.42,17.82-30.68,1.47-32.85-70.07-52.5Q-2.19,170,1.22,96.16,3.43,44.38,46.39,18.73,79.11-.92,125,1.23q55.67,2.4,89.36,38.12L175.54,74.83q-19-20.14-53-21.58-23.93-.95-40.77,6-26.37,11-27.59,39.31-1.47,32.37,70.07,52,64.46,17.74,91.31,52.26,18.54,24,17.33,53-1.95,40.77-37.6,69.05Q162.12,351,115.72,351C113.44,351,111.24,350.91,109.13,350.76Z"/><path class="cls-1" d="M353.1,51.58A124,124,0,1,1,265.42,87.9,123.19,123.19,0,0,1,353.1,51.58m0-51a175,175,0,1,0,175,175,175,175,0,0,0-175-175Z"/><path class="cls-1" d="M800.48,123.29V350H747.26V123.29q0-29.31-20.75-49.9-21-20.83-50.29-20.83-29.54,0-50.3,20.83-18.21,17.88-20.62,42.32a75.45,75.45,0,0,0-.37,7.58V348.36c0,.55-.08,1.1-.13,1.64q-3.76,43.61-36.12,75.49-36.39,36.09-87.89,36.09-51.27,0-87.89-36.09-36.27-36-36.38-86.87H356v-163h53.8v163h-.1q.12,29.1,20.75,49.57,21,20.83,50.3,20.83,29.54,0,50.29-20.83,18.23-17.87,20.63-42.32a75.45,75.45,0,0,0,.37-7.58V113.22c0-.55.08-1.1.13-1.64Q556,68,588.33,36.09,624.71,0,676.22,0q51.27,0,87.89,36.09Q800.49,72.18,800.48,123.29Z"/></g></g></svg>